<svg width="888" height="772" viewBox="0 0 888 772" fill="none" xmlns="http://www.w3.org/2000/svg">
<g id="undraw_winter_walk_2yac 1">
<g id="Person">
<path id="Vector" d="M184.124 311.82L173.374 335.205L207.172 350.056C207.172 350.056 209.667 321.977 213.196 319.614L184.124 311.82Z" fill="#A0616A"/>
<path id="Vector_2" d="M200.015 331.317C213.837 331.317 225.041 320.112 225.041 306.291C225.041 292.469 213.837 281.264 200.015 281.264C186.193 281.264 174.988 292.469 174.988 306.291C174.988 320.112 186.193 331.317 200.015 331.317Z" fill="#FFB9B9"/>
<path id="Vector_3" d="M213.924 292.602C210.867 292.845 207.835 293.34 204.858 294.08C203.6 294.308 202.411 294.823 201.385 295.587C199.75 296.985 199.35 299.315 199.054 301.446L197.599 311.919C197.57 312.614 197.337 313.286 196.929 313.85C196.323 314.37 195.578 314.702 194.787 314.807C191.953 315.561 189.459 317.254 187.712 319.609C185.366 322.793 184.477 327.06 181.448 329.603C180.652 322.554 175.024 317.132 172.067 310.684C170.206 306.612 169.418 302.133 169.776 297.671C169.895 296.042 170.209 294.433 170.712 292.88C171.494 290.589 172.758 288.492 174.42 286.732C176.082 284.972 178.103 283.59 180.345 282.679C182.538 281.804 184.937 281.386 186.934 280.127C188.02 279.443 188.951 278.53 190.05 277.866C192.27 276.523 194.98 276.302 197.575 276.303C203.018 276.306 208.429 277.131 213.626 278.751C215.982 279.486 218.457 280.52 219.73 282.634C220.403 283.9 220.641 285.352 220.407 286.767C220.173 288.181 219.481 289.48 218.436 290.462C217.359 291.408 216.063 292.07 214.666 292.39C213.268 292.71 211.813 292.677 210.432 292.295" fill="#2F2E41"/>
<path id="Vector_4" d="M173.527 313.805C173.527 313.805 203.896 284.098 227.291 299.952C227.291 299.952 229.796 276.977 214.472 271.904C199.149 266.831 191.282 260.172 191.282 260.172L176.174 264.326L172.482 282.984C172.482 282.984 166.448 308.323 173.527 313.805Z" fill="#F9A826"/>
<path id="Vector_5" d="M177.917 266.951C185.658 266.951 191.932 260.676 191.932 252.936C191.932 245.196 185.658 238.921 177.917 238.921C170.177 238.921 163.903 245.196 163.903 252.936C163.903 260.676 170.177 266.951 177.917 266.951Z" fill="#F9A826"/>
<path id="Vector_6" d="M143.854 492.128C143.854 492.128 159.435 526.846 172.611 537.617L208.498 614.11L188.646 735.287C188.646 735.287 171.589 766.392 219.646 745.287L260.504 603.99L223.766 495.695L143.854 492.128Z" fill="#2F2E41"/>
<path id="Vector_7" d="M188.646 735.287C188.646 735.287 165.427 767.154 187.545 769.231C209.662 771.309 222.945 770.433 230.971 770.358C238.646 770.287 253.992 770.376 251.646 758.287C249.299 746.197 221.646 744.287 221.646 744.287L188.646 735.287Z" fill="#2F2E41"/>
<path id="Vector_8" d="M79.324 694.958C79.324 694.958 48.5403 719.595 69.3324 727.417C90.1244 735.24 103.17 737.889 110.933 739.928C118.356 741.878 133.139 746.001 134.055 733.72C134.971 721.439 108.794 712.321 108.794 712.321L79.324 694.958Z" fill="#2F2E41"/>
<path id="Vector_9" d="M137.751 449.556C137.751 449.556 138.279 487.606 146.101 502.72L148.696 587.173L77.6457 694.287C77.6457 694.287 61.1601 716.594 113.646 716.287L200.448 598.516L209.689 484.533L137.751 449.556Z" fill="#2F2E41"/>
<path id="Vector_10" d="M236.764 510.378C236.234 519.969 235.726 526.915 235.475 528.167C235.092 530.126 225.406 531.695 211.78 532.137C191.17 532.8 161.531 530.892 141.422 523.843C137.511 522.473 134.498 518.996 132.215 514.238C125.313 499.882 124.975 473.889 126.19 458.899C126.814 451.794 127.849 444.73 129.291 437.745C130.204 433.23 131.169 429.105 132.068 425.621C133.813 418.778 135.25 414.403 135.25 414.403L135.404 404.459L135.589 392.438L135.92 371.379L135.95 369.641C119.038 357.105 142.122 317.794 142.903 313.868C143.676 309.942 166.871 321.675 166.871 321.675L173.139 315.768L187.878 323.789L206.83 317.904L218.74 343.161C218.74 343.161 222.755 353.252 227.056 368.021C228.876 374.267 230.739 381.353 232.374 388.858C233.214 392.74 233.995 396.747 234.672 400.806C235.578 406.19 236.308 411.685 236.757 417.136C236.89 418.653 237 420.185 237.111 421.739C237.383 425.628 237.611 429.657 237.781 433.738C238.09 440.676 238.267 447.792 238.355 454.76C238.554 471.362 237.641 494.505 236.764 510.378Z" fill="#3F3D56"/>
<path id="Vector_11" d="M132.064 425.618C133.815 418.781 135.253 414.402 135.253 414.402L135.404 404.461L234.673 400.807C235.578 406.19 236.307 411.682 236.758 417.139C236.887 418.654 237.002 420.187 237.113 421.74L132.064 425.618Z" fill="#F9A826"/>
<path id="Vector_12" d="M238.355 454.763L126.194 458.897C126.816 451.792 127.849 444.729 129.287 437.743L237.78 433.74C238.09 440.679 238.264 447.795 238.355 454.763Z" fill="#F9A826"/>
<path id="Vector_13" d="M236.764 510.378C236.234 519.969 235.726 526.915 235.475 528.167C235.092 530.126 225.406 531.695 211.78 532.137C191.17 532.8 161.531 530.892 141.422 523.843C137.511 522.473 134.498 518.996 132.215 514.238L236.764 510.378Z" fill="#F9A826"/>
<path id="Vector_14" d="M249.23 467.568C249.23 467.568 270.241 469.685 263.204 484.62C256.167 499.555 234.542 485.071 234.542 485.071L249.23 467.568Z" fill="#FFB9B9"/>
<path id="Vector_15" d="M258.651 466.371L240.25 492.324C240.25 492.324 235.821 489.59 229.116 485.416C227.044 484.129 224.754 482.706 222.31 481.182C221.058 480.393 219.759 479.585 218.434 478.751C216.244 477.389 213.966 475.959 211.642 474.499C210.372 473.697 209.075 472.879 207.777 472.061C205.538 470.638 203.27 469.21 201.013 467.773C184.485 457.288 168.321 446.763 165.154 443.789C160.44 439.356 149.762 406.935 143.513 386.943C141.396 380.339 140.85 373.332 141.919 366.48C142.988 359.628 145.642 353.12 149.669 347.475C157.634 336.519 166.134 335.538 173.179 337.891C177.833 339.52 181.841 342.6 184.612 346.677C187.384 350.755 188.774 355.614 188.576 360.541L187.074 410.369L223.295 438.711L229.578 443.628L233.167 446.43L239.449 451.346L243.028 454.147L249.311 459.063L258.651 466.371Z" fill="#3F3D56"/>
<path id="Vector_16" opacity="0.1" d="M141.03 359.419C141.03 359.419 159.799 321.294 183.777 334.202C183.777 334.202 158.05 330.132 141.03 359.419Z" fill="black"/>
<path id="Vector_17" d="M239.449 451.346L218.434 478.751C216.244 477.389 213.966 475.959 211.642 474.499L233.167 446.43L239.449 451.346Z" fill="#F9A826"/>
<path id="Vector_18" d="M249.311 459.063L229.116 485.416C227.044 484.129 224.754 482.706 222.31 481.182L243.028 454.147L249.311 459.063Z" fill="#F9A826"/>
</g>
</g>
</svg>
